<svg xmlns="http://www.w3.org/2000/svg" width="150" height="300" viewBox="0 0 150 300">
  <g>
    <path d="M73.986 20V0h20.372v20zm4.94-4.234H89.42V4.241H78.926zM64.354 20l-5.061-6.179L54.235 20H47.99l8.178-9.99L47.974 0h6.251l5.068 6.2L64.364 0h6.249l-8.2 10.01L70.6 20zm51.972 0L104.62 7.909V20h-4.94V0h3.728l11.702 12.1V0h4.94v20zM25.7 20V0h18.879v4.241H30.642v3.426h13.937v4.261H30.642v3.833h13.937V20zm-9.049 0L4.94 7.909V20H0V0h3.734l11.705 12.1V0h4.933v20z"/>
  </g>
  <g transform="translate(0 50)">
    <path d="M4 10.737v6.053l8.034-4.27L4 10.736z" fill="#00A0DF"/>
    <path d="M12.034 1 4 5.274v5.463l8.034 1.782V1z" fill="#002B49"/>
    <path d="M12.034 12.519 4 16.789 13.966 19 22 14.73l-9.966-2.21z" fill="#C2D500"/>
  </g>
  <g transform="translate(0 100)">
    <g clip-path="url(#c00cl1yy2a)">
        <path d="M18 11a9 9 0 1 0-10.406 8.89v-6.288H5.309V11h2.285V9.017c0-2.255 1.343-3.501 3.4-3.501.984 0 2.014.175 2.014.175v2.215h-1.135c-1.118 0-1.467.694-1.467 1.406V11h2.496l-.399 2.602h-2.097v6.289C14.71 19.216 18 15.492 18 11z" fill="#1877F2"/>
    </g>
    <defs>
        <clipPath id="c00cl1yy2a">
            <path fill="#fff" d="M0 0h22v22H0z"/>
        </clipPath>
    </defs>
  </g>
  <g transform="translate(0 150)">
    <g clip-path="url(#drk9fw7b4a)" fill-rule="evenodd" clip-rule="evenodd">
        <path d="M17.64 11.2c0-.64-.06-1.25-.16-1.84H9v3.48h4.84a4.15 4.15 0 0 1-1.8 2.72v2.26h2.91c1.7-1.57 2.68-3.87 2.68-6.62h.01z" fill="#4285F4"/>
        <path d="M9 20c2.43 0 4.47-.81 5.96-2.18l-2.91-2.26c-.81.54-1.84.86-3.05.86-2.34 0-4.33-1.58-5.04-3.71h-3v2.33A8.993 8.993 0 0 0 9 20z" fill="#34A853"/>
        <path d="M3.96 12.71c-.18-.54-.28-1.12-.28-1.71 0-.59.1-1.17.28-1.71V6.96h-3a8.976 8.976 0 0 0 0 8.08l3.01-2.33h-.01z" fill="#FBBC05"/>
        <path d="M9 5.58c1.32 0 2.51.45 3.44 1.35l2.58-2.58C13.46 2.9 11.42 2.01 9 2.01 5.48 2 2.44 4.02.96 6.96l3.01 2.33c.71-2.13 2.69-3.71 5.04-3.71H9z" fill="#EA4335"/>
    </g>
    <defs>
        <clipPath id="drk9fw7b4a">
            <path fill="#fff" transform="translate(0 2)" d="M0 0h18v18H0z"/>
        </clipPath>
    </defs>
  </g>
  <g transform="translate(0 200)">
    <path d="M1.5 4.215c.01 4.57 0 9.14 0 13.719 1.712.01 3.428 0 5.139 0 .026-2.267-.032-4.537.03-6.804.562.785 1.074 1.604 1.648 2.381.959 1.489 2.045 2.895 2.967 4.408 1.724.045 3.449 0 5.18.026.018-.215.036-.429.036-.645-.024-4.365.02-8.73-.024-13.093-1.707-.013-3.411 0-5.116 0-.014 2.286.014 4.562-.015 6.84C9.76 8.791 8.263 6.475 6.642 4.245c-1.711-.083-3.43-.028-5.142-.031z" fill="#03C75A"/>
  </g>
  <g transform="translate(0 250)">
    <path d="M14.857 12.776a4.117 4.117 0 0 1-.745-2.41c-.005-.801.241-1.584.702-2.238.355-.476.77-.905 1.232-1.276-.322-.41-.7-.774-1.124-1.08a3.953 3.953 0 0 0-2.303-.702 6.1 6.1 0 0 0-1.87.368 5.414 5.414 0 0 1-1.546.368 6.955 6.955 0 0 1-1.492-.325 7.196 7.196 0 0 0-1.914-.324 3.732 3.732 0 0 0-3.07 1.557 6.414 6.414 0 0 0-1.221 4.047c.05 1.92.597 3.794 1.59 5.439C4.168 18.067 5.253 19 6.35 19a3.908 3.908 0 0 0 1.426-.368 4.168 4.168 0 0 1 1.536-.36c.56.019 1.113.136 1.632.346.484.193.995.31 1.514.345.922 0 1.849-.706 2.779-2.12.571-.83 1.019-1.739 1.33-2.698a3.289 3.289 0 0 1-1.71-1.369z" fill="#000"/>
    <path d="M11.182 4.422a4.438 4.438 0 0 0 1.005-1.493c.195-.468.301-.968.314-1.476 0-.028 0-.064-.005-.108-.005-.043-.005-.079-.005-.108a1.047 1.047 0 0 1-.027-.118A1.005 1.005 0 0 0 12.437 1a4.31 4.31 0 0 0-2.699 1.6 4.931 4.931 0 0 0-.843 2.779c.38-.025.756-.085 1.125-.18.442-.166.84-.432 1.162-.777z" fill="#000"/>
  </g>
</svg>
